HIERARCHY
ROOT Hips
{
  OFFSET 50.1555 85.579 -16.4217
  CHANNELS 6 Xposition Yposition Zposition Zrotation Xrotation Yrotation
  JOINT spine
  {
    OFFSET 0 6.3926 0.367606
    CHANNELS 3 Zrotation Xrotation Yrotation
    JOINT spine1
    {
      OFFSET 0 9.17611 0
      CHANNELS 3 Zrotation Xrotation Yrotation
      JOINT spine2
      {
        OFFSET 0 8.79238 0
        CHANNELS 3 Zrotation Xrotation Yrotation
        JOINT Neck
        {
          OFFSET 0 22.5737 1.07624
          CHANNELS 3 Zrotation Xrotation Yrotation
          JOINT Head
          {
            OFFSET 0 6.82011 0
            CHANNELS 3 Zrotation Xrotation Yrotation
            End Site
            {
              OFFSET 0 16.5085 -5.44427
            }
          }
        }
        JOINT RightShoulder
        {
          OFFSET -3.70221 9.49509 -0.515508
          CHANNELS 3 Zrotation Xrotation Yrotation
          JOINT RightArm
          {
            OFFSET 0 12.4537 0
            CHANNELS 3 Zrotation Xrotation Yrotation
            JOINT RightArmRoll
            {
              OFFSET 0 6.28686 0
              CHANNELS 3 Zrotation Xrotation Yrotation
              JOINT RightForeArm
              {
                OFFSET 0 18.3114 0
                CHANNELS 3 Zrotation Xrotation Yrotation
                JOINT RightForeArmRoll
                {
                  OFFSET 0 7.05483 0
                  CHANNELS 3 Zrotation Xrotation Yrotation
                  JOINT RightHand
                  {
                    OFFSET 0 14.1575 0
                    CHANNELS 3 Zrotation Xrotation Yrotation
                    End Site
                    {
                      OFFSET 0 0 0
                    }
                  }
                }
              }
            }
          }
        }
        JOINT LeftShoulder
        {
          OFFSET 3.70221 9.49509 -0.515508
          CHANNELS 3 Zrotation Xrotation Yrotation
          JOINT LeftArm
          {
            OFFSET 0 12.4537 0
            CHANNELS 3 Zrotation Xrotation Yrotation
            JOINT LeftArmRoll
            {
              OFFSET 0 6.28686 0
              CHANNELS 3 Zrotation Xrotation Yrotation
              JOINT LeftForeArm
              {
                OFFSET 0 18.3114 0
                CHANNELS 3 Zrotation Xrotation Yrotation
                JOINT LeftForeArmRoll
                {
                  OFFSET 0 7.05483 0
                  CHANNELS 3 Zrotation Xrotation Yrotation
                  JOINT LeftHand
                  {
                    OFFSET 0 14.1575 0
                    CHANNELS 3 Zrotation Xrotation Yrotation
                    End Site
                    {
                      OFFSET 0 0 0
                    }
                  }
                }
              }
            }
          }
        }
      }
    }
  }
  JOINT RightUpLeg
  {
    OFFSET -5.66616 -1.03903 -0.87161
    CHANNELS 3 Zrotation Xrotation Yrotation
    JOINT RightUpLegRoll
    {
      OFFSET 0 16.6005 0
      CHANNELS 3 Zrotation Xrotation Yrotation
      JOINT RightLeg
      {
        OFFSET 0 -20.5572 0
        CHANNELS 3 Zrotation Xrotation Yrotation
        JOINT RightLegRoll
        {
          OFFSET 0 20.6244 0
          CHANNELS 3 Zrotation Xrotation Yrotation
          JOINT RightFoot
          {
            OFFSET 0 17.1664 0
            CHANNELS 3 Zrotation Xrotation Yrotation
            JOINT RightToeBase
            {
              OFFSET 0 14.3502 0
              CHANNELS 3 Zrotation Xrotation Yrotation
              End Site
              {
                OFFSET 0.00608252 6.94971 -0.801061
              }
            }
          }
        }
      }
    }
  }
  JOINT LeftUpLeg
  {
    OFFSET 5.66616 -1.03903 -0.87161
    CHANNELS 3 Zrotation Xrotation Yrotation
    JOINT LeftUpLegRoll
    {
      OFFSET 0 16.6006 0
      CHANNELS 3 Zrotation Xrotation Yrotation
      JOINT LeftLeg
      {
        OFFSET 0 20.5571 0
        CHANNELS 3 Zrotation Xrotation Yrotation
        JOINT LeftLegRoll
        {
          OFFSET 0 20.8151 0
          CHANNELS 3 Zrotation Xrotation Yrotation
          JOINT LeftFoot
          {
            OFFSET 0 16.9757 0
            CHANNELS 3 Zrotation Xrotation Yrotation
            JOINT LeftToeBase
            {
              OFFSET 0 14.3502 0
              CHANNELS 3 Zrotation Xrotation Yrotation
              End Site
              {
                OFFSET -0.0272592 6.9497 -0.801061
              }
            }
          }
        }
      }
    }
  }
}
MOTION
Frames: 5
Frame Time: 0.00208333
65.372 81.8253 -10.7747 3.98275 14.5491 2.12328 -1.14227 -1.19964 -0.150556 -2.28601 1.60418 -0.176207 -2.28575 3.24847 -0.138013 6.69774 -3.56441 -0.887507 -2.92532 0.661725 0.0616824 53.6498 -12.0254 -7.62505 108.02 5.41649 6.05952 -1.31838e-006 -4.52883e-007 -2.47254e-006 15.6371 3.34189 -0.496735 3.13322e-006 2.14592e-006 -2.99434 8.02901 -4.95143 0.697688 -40.5076 -8.35036 4.68782 -116.223 -1.29578 0.555349 4.93499e-006 -3.49522e-006 3.18961e-006 -13.9934 15.0678 2.30997 7.08204e-006 -4.98787e-006 3 -8.02887 -4.95145 -0.697685 171.083 33.6181 7.27056 180 7.01571e-015 179.032 175.081 46.9942 -179.254 6.39801e-007 2.19321e-006 1.17655 -30.9123 76.5839 31.3001 9.48334 39.5142 -4.92459 177.315 31.674 3.33514 -1.07169e-005 -4.64205e-006 -1.01351 -2.7805 -43.7695 -0.443491 -3.27036e-006 -6.5874e-007 -1.13862 24.7675 74.6243 -26.7985 -8.98198 40.4949 2.89893 
65.4341 81.1991 -10.8627 4.16593 14.7022 2.15862 -1.17697 -1.17869 -0.146183 -2.35537 1.64593 -0.163218 -2.35535 3.29017 -0.123855 6.76994 -3.82881 -0.928315 -3.00019 0.450008 0.00380398 53.7397 -12.1509 -7.71127 108.027 5.60637 6.08844 -1.31838e-006 -4.52883e-007 -2.47254e-006 15.5649 3.27854 -0.488616 3.13322e-006 2.14592e-006 -2.99342 8.02901 -4.95143 0.697688 -40.5488 -8.18793 4.54598 -116.255 -1.23425 0.556985 4.93499e-006 -3.49522e-006 3.18961e-006 -13.9295 15.2526 2.33085 7.08204e-006 -4.98787e-006 3 -8.02887 -4.95145 -0.697685 170.729 34.3441 7.6397 180 7.0157e-015 179.029 175.112 48.4154 -179.178 6.39801e-007 2.19321e-006 1.29095 -34.4102 77.9234 34.8927 9.36929 38.7362 -4.7627 177.049 32.4956 3.3821 -1.07169e-005 -4.64205e-006 -1.02341 -2.92868 -45.2506 -0.569294 -3.27036e-006 -6.5874e-007 -1.24305 26.7898 75.844 -28.9729 -8.99301 39.9933 3.03458 
65.4165 80.7949 -11.1146 4.3453 14.8566 2.19232 -1.21089 -1.15698 -0.142176 -2.4232 1.68921 -0.151017 -2.42341 3.3334 -0.110511 6.83736 -4.10488 -0.965435 -3.07387 0.242283 -0.0517282 53.8312 -12.274 -7.79566 108.043 5.81363 6.11946 -1.31838e-006 -4.52883e-007 -2.47254e-006 15.4855 3.21463 -0.482549 3.13322e-006 2.14592e-006 -2.99271 8.02901 -4.95143 0.697688 -40.5939 -8.03063 4.40897 -116.288 -1.15566 0.558558 4.93499e-006 -3.49522e-006 3.18961e-006 -13.8603 15.4223 2.3493 7.08204e-006 -4.98787e-006 3 -8.02887 -4.95145 -0.697685 170.375 35.0779 8.00778 180 7.0157e-015 179.026 175.148 49.8309 -179.103 6.398e-007 2.19321e-006 1.40679 -38.7969 79.2069 39.3802 9.25715 37.928 -4.60082 176.783 33.3245 3.43003 -1.07169e-005 -4.64205e-006 -1.03364 -3.0788 -46.7295 -0.698239 -3.27036e-006 -6.58738e-007 -1.3492 29.2284 77.0442 -31.5678 -8.99993 39.4634 3.17077 
65.4718 80.3588 -11.2047 4.51812 15.0111 2.22449 -1.24349 -1.13427 -0.138643 -2.48839 1.73451 -0.139882 -2.48883 3.37866 -0.0982765 6.89898 -4.39521 -0.998139 -3.14566 0.0428697 -0.104195 53.9242 -12.3937 -7.87759 108.066 6.04202 6.15533 -1.31838e-006 -4.52883e-007 -2.47254e-006 15.3964 3.14854 -0.479067 3.13322e-006 2.14592e-006 -2.99229 8.02901 -4.95143 0.697688 -40.6428 -7.88113 4.27911 -116.324 -1.05639 0.560693 4.93499e-006 -3.49522e-006 3.18961e-006 -13.7851 15.5732 2.3648 7.08204e-006 -4.98787e-006 3 -8.02887 -4.95145 -0.697685 170.026 35.8165 8.37138 180 7.01569e-015 179.023 175.188 51.2325 -179.032 6.398e-007 2.1932e-006 1.52266 -44.2609 80.3901 44.9492 9.1504 37.1152 -4.4434 176.519 34.1561 3.4786 -1.07169e-005 -4.64205e-006 -1.04424 -3.22688 -48.1968 -0.827549 -3.27036e-006 -6.58735e-007 -1.45603 32.1466 78.198 -34.6444 -9.00289 38.9258 3.30429 
65.5234 79.8738 -11.4594 4.68163 15.1646 2.25521 -1.27423 -1.11029 -0.135695 -2.54988 1.78234 -0.130089 -2.55052 3.42644 -0.0874473 6.95384 -4.70239 -1.0257 -3.21485 -0.143908 -0.152875 54.0185 -12.5091 -7.95641 108.1 6.29526 6.19881 -1.31838e-006 -4.52883e-007 -2.47254e-006 15.295 3.07864 -0.4787 3.13322e-006 2.14592e-006 -2.99222 8.02901 -4.95143 0.697688 -40.6959 -7.74209 4.15874 -116.363 -0.932802 0.564018 4.93499e-006 -3.49522e-006 3.18961e-006 -13.7033 15.7013 2.37683 7.08204e-006 -4.98787e-006 3 -8.02887 -4.95145 -0.697685 169.687 36.557 8.72689 180 7.01568e-015 179.019 175.235 52.6122 -178.969 6.398e-007 2.19318e-006 1.63718 -50.9521 81.4259 51.7473 9.05181 36.3235 -4.29438 176.259 34.9858 3.52746 -1.07169e-005 -4.64205e-006 -1.05526 -3.36833 -49.6431 -0.954006 -3.27036e-006 -6.58731e-007 -1.56249 35.5978 79.2782 -38.2542 -9.00249 38.4008 3.43213 
